<svg xmlns="http://www.w3.org/2000/svg" viewBox="0 0 199.32 165.09"><defs><style>.cls-1{fill:#1baf9a;}</style></defs><title>noshblue_1</title><g id="Layer_2" data-name="Layer 2"><g id="Layer_1-2" data-name="Layer 1"><path class="cls-1" d="M10.72,14.48c-.27-1.56-.44-1.23-1.15-3.86A43.55,43.55,0,0,1,8.06,0l8.33,1.33a9.57,9.57,0,0,0,.09,5.8,17.59,17.59,0,0,0,3.09,4.15c7.73,7.73,15.77,1.16,28.89,7,8.81,4,16.69,12.08,26.32,22l.4.42c29.44,30.53,108.88,24.57,108.35,28.56-.37,2.81-26.55,2.9-34.63,2.93-19.55.07-33.84-1.83-47-3.62-18.42-2.51-27.58-4.15-39-8.54a118.3,118.3,0,0,1-19.76-9.84c.81,1.57,1.89,3.79,3,6.54,1.86,4.61,3.65,9,3.6,12.65-.07,6.35-5.83,10.89-9.65,14.26C30.79,92,14.33,106.67,14,121.23c-.2,10.42,7.84,23.6,10.24,27.53,2.57,4.21,6,8.89,4.78,10.27-1.41,1.57-7.92-2.15-8.64-2.57C9.18,150-3.08,131.09.7,112.79,4.51,94.32,22,89.28,21.14,71.8a28.82,28.82,0,0,0-3.63-12.34c-.65-.95-6.12-9.06-8-17.46a43.2,43.2,0,0,1-.89-12c.13-.49.32-1.25.54-2.18C10.59,21.91,11.4,18.36,10.72,14.48Z"/><path class="cls-1" d="M72.6,163.55H62.92V111.74a6.37,6.37,0,0,0-2.31-5.33,8.51,8.51,0,0,0-10.51,0,6.31,6.31,0,0,0-2.36,5.33v51.81H38.06V96.34h6.38l2.2,3.19a12,12,0,0,1,4.07-3,15.92,15.92,0,0,1,6.49-1.1A14.89,14.89,0,0,1,68.37,99.8q4.23,4.35,4.23,11.61Z"/><path class="cls-1" d="M114.73,148.37a17.83,17.83,0,0,1-1.32,7,15.07,15.07,0,0,1-3.63,5.28,16.31,16.31,0,0,1-5.33,3.3A17.89,17.89,0,0,1,98,165.09a18.62,18.62,0,0,1-6.6-1.16,15.56,15.56,0,0,1-5.33-3.3,14.81,14.81,0,0,1-3.52-5.28,18.5,18.5,0,0,1-1.27-7V111.74A17.38,17.38,0,0,1,82.56,105a14.76,14.76,0,0,1,8.85-8.42,19.49,19.49,0,0,1,6.6-1.1,18.72,18.72,0,0,1,6.44,1.1,15.6,15.6,0,0,1,5.33,3.25,15.33,15.33,0,0,1,3.63,5.17,16.76,16.76,0,0,1,1.32,6.77Zm-9.68-36.63A6.69,6.69,0,0,0,103,106.4a7.73,7.73,0,0,0-10,0,6.77,6.77,0,0,0-2,5.33v36.63a6.63,6.63,0,0,0,2,5.22,7.73,7.73,0,0,0,10,0,6.55,6.55,0,0,0,2.09-5.22Z"/><path class="cls-1" d="M157.08,146.61a22.83,22.83,0,0,1-1,6.93,17.3,17.3,0,0,1-3.19,5.88,15.55,15.55,0,0,1-5.39,4.13,18,18,0,0,1-7.76,1.54,18.52,18.52,0,0,1-6.82-1.21,15.8,15.8,0,0,1-5.33-3.41,14.84,14.84,0,0,1-3.46-5.28,18.46,18.46,0,0,1-1.21-6.82v-4.62l9.68,2.09v2.53a6.8,6.8,0,0,0,2,5.11,7.1,7.1,0,0,0,5.17,1.93q7.48,0,7.48-7a13.12,13.12,0,0,0-.66-4.46,12.12,12.12,0,0,0-1.87-3.36,35,35,0,0,0-3.74-3.63q-2-1.65-4-3.3t-4-3.41a36.89,36.89,0,0,1-3.74-3.85,24.6,24.6,0,0,1-3.91-6.38,20.81,20.81,0,0,1-1.48-8.14,17.74,17.74,0,0,1,1.21-6.66,14.78,14.78,0,0,1,3.41-5.17,15.79,15.79,0,0,1,5.22-3.35,17.76,17.76,0,0,1,6.66-1.21q7.59,0,11.66,4.51T156,111.74v4.62l-9.46-2.2v-2.42a7.31,7.31,0,0,0-1.81-5.23,6.27,6.27,0,0,0-4.79-1.92,6,6,0,0,0-4.79,2,8,8,0,0,0-1.71,5.39,10.92,10.92,0,0,0,2.42,6.93,40.16,40.16,0,0,0,5.83,5.94l7,5.88a28.48,28.48,0,0,1,5.88,6.76,17.13,17.13,0,0,1,1.87,4.35A17.73,17.73,0,0,1,157.08,146.61Z"/><path class="cls-1" d="M199.32,163.55h-9.68V111.74q0-3.85-2.31-5.5a8.85,8.85,0,0,0-5.28-1.65,8.61,8.61,0,0,0-5.23,1.65q-2.26,1.65-2.25,5.5v51.81h-9.68V77.09l9.68-3.19V98a7.7,7.7,0,0,1,3.79-2,23.1,23.1,0,0,1,5.23-.55,16.73,16.73,0,0,1,6,1.1,15.07,15.07,0,0,1,5,3.13,14.69,14.69,0,0,1,3.41,5.06,18,18,0,0,1,1.27,7Z"/></g></g></svg>